<svg width="500" height="500" viewBox="0 0 500 500" fill="none" xmlns="http://www.w3.org/2000/svg">
<g filter="url(#filter0_d)">
<rect x="144" y="144" width="212" height="212" rx="20" fill="#282C34"/>
</g>
<g filter="url(#filter1_d)">
<path d="M247.012 270.5C208.012 270.5 218.012 269 209.512 270.5C201.012 272 191.259 284.576 190.012 300.5H256.012C324.512 300.5 326.512 200 275.512 200C236.624 200 233.202 200 229.781 200L225.512 200C216.512 200 210.942 212.3 209.512 224.5H247.012C286.012 224.5 286.012 270.5 247.012 270.5Z" fill="#65FFE4"/>
<path d="M247.012 270.5C208.012 270.5 218.012 269 209.512 270.5C201.012 272 191.259 284.576 190.012 300.5H256.012C324.512 300.5 326.512 200 275.512 200C236.624 200 233.202 200 229.781 200L225.512 200C216.512 200 210.942 212.3 209.512 224.5H247.012C286.012 224.5 286.012 270.5 247.012 270.5Z" fill="url(#paint0_radial)"/>
<path d="M247.012 270.5C208.012 270.5 218.012 269 209.512 270.5C201.012 272 191.259 284.576 190.012 300.5H256.012C324.512 300.5 326.512 200 275.512 200C236.624 200 233.202 200 229.781 200L225.512 200C216.512 200 210.942 212.3 209.512 224.5H247.012C286.012 224.5 286.012 270.5 247.012 270.5Z" fill="url(#paint1_linear)"/>
</g>
<defs>
<filter id="filter0_d" x="109" y="109" width="282" height="282" filterUnits="userSpaceOnUse" color-interpolation-filters="sRGB">
<feFlood flood-opacity="0" result="BackgroundImageFix"/>
<feColorMatrix in="SourceAlpha" type="matrix" values="0 0 0 0 0 0 0 0 0 0 0 0 0 0 0 0 0 0 127 0"/>
<feMorphology radius="10" operator="dilate" in="SourceAlpha" result="effect1_dropShadow"/>
<feOffset/>
<feGaussianBlur stdDeviation="12.5"/>
<feColorMatrix type="matrix" values="0 0 0 0 0 0 0 0 0 0 0 0 0 0 0 0 0 0 0.25 0"/>
<feBlend mode="normal" in2="BackgroundImageFix" result="effect1_dropShadow"/>
<feBlend mode="normal" in="SourceGraphic" in2="effect1_dropShadow" result="shape"/>
</filter>
<filter id="filter1_d" x="165.012" y="175" width="170.926" height="150.5" filterUnits="userSpaceOnUse" color-interpolation-filters="sRGB">
<feFlood flood-opacity="0" result="BackgroundImageFix"/>
<feColorMatrix in="SourceAlpha" type="matrix" values="0 0 0 0 0 0 0 0 0 0 0 0 0 0 0 0 0 0 127 0"/>
<feOffset/>
<feGaussianBlur stdDeviation="12.5"/>
<feColorMatrix type="matrix" values="0 0 0 0 0 0 0 0 0 0 0 0 0 0 0 0 0 0 0.25 0"/>
<feBlend mode="normal" in2="BackgroundImageFix" result="effect1_dropShadow"/>
<feBlend mode="normal" in="SourceGraphic" in2="effect1_dropShadow" result="shape"/>
</filter>
<radialGradient id="paint0_radial" cx="0" cy="0" r="1" gradientUnits="userSpaceOnUse" gradientTransform="translate(250.469 250.25) rotate(90) scale(50.25 60.469)">
<stop offset="0.1875" stop-color="#5B71E5"/>
<stop offset="0.473958" stop-color="#778AF1" stop-opacity="0.854167"/>
<stop offset="1" stop-color="white" stop-opacity="0"/>
</radialGradient>
<linearGradient id="paint1_linear" x1="305.012" y1="220.5" x2="190.012" y2="301" gradientUnits="userSpaceOnUse">
<stop stop-color="#E248F2"/>
<stop offset="0.104167" stop-color="#E452F3" stop-opacity="0.947917"/>
<stop offset="0.859375" stop-color="white" stop-opacity="0"/>
<stop offset="0.9999" stop-color="#FEF6FE" stop-opacity="0.0493756"/>
</linearGradient>
</defs>
</svg>
