<svg width="282" height="282" viewBox="0 0 282 282" fill="none" xmlns="http://www.w3.org/2000/svg">
<g filter="url(#filter0_d)">
<rect x="35" y="35" width="212" height="212" rx="20" fill="#282C34"/>
</g>
<g filter="url(#filter1_d)">
<path d="M138.012 161.5C99.0116 161.5 109.012 160 100.512 161.5C92.0116 163 82.2591 175.576 81.0116 191.5H147.012C215.512 191.5 217.512 91 166.512 91C127.624 91 124.202 91 120.781 91L116.512 91C107.512 91 101.942 103.3 100.512 115.5H138.012C177.012 115.5 177.012 161.5 138.012 161.5Z" fill="#65FFE4"/>
<path d="M138.012 161.5C99.0116 161.5 109.012 160 100.512 161.5C92.0116 163 82.2591 175.576 81.0116 191.5H147.012C215.512 191.5 217.512 91 166.512 91C127.624 91 124.202 91 120.781 91L116.512 91C107.512 91 101.942 103.3 100.512 115.5H138.012C177.012 115.5 177.012 161.5 138.012 161.5Z" fill="url(#paint0_radial)"/>
<path d="M138.012 161.5C99.0116 161.5 109.012 160 100.512 161.5C92.0116 163 82.2591 175.576 81.0116 191.5H147.012C215.512 191.5 217.512 91 166.512 91C127.624 91 124.202 91 120.781 91L116.512 91C107.512 91 101.942 103.3 100.512 115.5H138.012C177.012 115.5 177.012 161.5 138.012 161.5Z" fill="url(#paint1_linear)"/>
</g>
<defs>
<filter id="filter0_d" x="0" y="0" width="282" height="282" filterUnits="userSpaceOnUse" color-interpolation-filters="sRGB">
<feFlood flood-opacity="0" result="BackgroundImageFix"/>
<feColorMatrix in="SourceAlpha" type="matrix" values="0 0 0 0 0 0 0 0 0 0 0 0 0 0 0 0 0 0 127 0"/>
<feMorphology radius="10" operator="dilate" in="SourceAlpha" result="effect1_dropShadow"/>
<feOffset/>
<feGaussianBlur stdDeviation="12.5"/>
<feColorMatrix type="matrix" values="0 0 0 0 0 0 0 0 0 0 0 0 0 0 0 0 0 0 0.25 0"/>
<feBlend mode="normal" in2="BackgroundImageFix" result="effect1_dropShadow"/>
<feBlend mode="normal" in="SourceGraphic" in2="effect1_dropShadow" result="shape"/>
</filter>
<filter id="filter1_d" x="56.0116" y="66" width="170.926" height="150.5" filterUnits="userSpaceOnUse" color-interpolation-filters="sRGB">
<feFlood flood-opacity="0" result="BackgroundImageFix"/>
<feColorMatrix in="SourceAlpha" type="matrix" values="0 0 0 0 0 0 0 0 0 0 0 0 0 0 0 0 0 0 127 0"/>
<feOffset/>
<feGaussianBlur stdDeviation="12.5"/>
<feColorMatrix type="matrix" values="0 0 0 0 0 0 0 0 0 0 0 0 0 0 0 0 0 0 0.25 0"/>
<feBlend mode="normal" in2="BackgroundImageFix" result="effect1_dropShadow"/>
<feBlend mode="normal" in="SourceGraphic" in2="effect1_dropShadow" result="shape"/>
</filter>
<radialGradient id="paint0_radial" cx="0" cy="0" r="1" gradientUnits="userSpaceOnUse" gradientTransform="translate(141.469 141.25) rotate(90) scale(50.25 60.469)">
<stop offset="0.1875" stop-color="#5B71E5"/>
<stop offset="0.473958" stop-color="#778AF1" stop-opacity="0.854167"/>
<stop offset="1" stop-color="white" stop-opacity="0"/>
</radialGradient>
<linearGradient id="paint1_linear" x1="196.012" y1="111.5" x2="81.0115" y2="192" gradientUnits="userSpaceOnUse">
<stop stop-color="#E248F2"/>
<stop offset="0.104167" stop-color="#E452F3" stop-opacity="0.947917"/>
<stop offset="0.859375" stop-color="white" stop-opacity="0"/>
<stop offset="0.9999" stop-color="#FEF6FE" stop-opacity="0.0493756"/>
</linearGradient>
</defs>
</svg>
