<svg width="171" height="151" viewBox="0 0 171 151" fill="none" xmlns="http://www.w3.org/2000/svg">
<g filter="url(#filter0_d)">
<path d="M82.0116 95.5C43.0116 95.5 53.0116 94 44.5116 95.5C36.0116 97 26.2591 109.576 25.0116 125.5H91.0116C159.512 125.5 161.512 25 110.512 25C71.6241 25 68.2024 25 64.7806 25L60.5116 25C51.5116 25 45.9415 37.3003 44.5116 49.5H82.0116C121.012 49.5 121.012 95.5 82.0116 95.5Z" fill="#65FFE4"/>
<path d="M82.0116 95.5C43.0116 95.5 53.0116 94 44.5116 95.5C36.0116 97 26.2591 109.576 25.0116 125.5H91.0116C159.512 125.5 161.512 25 110.512 25C71.6241 25 68.2024 25 64.7806 25L60.5116 25C51.5116 25 45.9415 37.3003 44.5116 49.5H82.0116C121.012 49.5 121.012 95.5 82.0116 95.5Z" fill="url(#paint0_radial)"/>
<path d="M82.0116 95.5C43.0116 95.5 53.0116 94 44.5116 95.5C36.0116 97 26.2591 109.576 25.0116 125.5H91.0116C159.512 125.5 161.512 25 110.512 25C71.6241 25 68.2024 25 64.7806 25L60.5116 25C51.5116 25 45.9415 37.3003 44.5116 49.5H82.0116C121.012 49.5 121.012 95.5 82.0116 95.5Z" fill="url(#paint1_linear)"/>
</g>
<defs>
<filter id="filter0_d" x="0.0115662" y="0" width="170.926" height="150.5" filterUnits="userSpaceOnUse" color-interpolation-filters="sRGB">
<feFlood flood-opacity="0" result="BackgroundImageFix"/>
<feColorMatrix in="SourceAlpha" type="matrix" values="0 0 0 0 0 0 0 0 0 0 0 0 0 0 0 0 0 0 127 0"/>
<feOffset/>
<feGaussianBlur stdDeviation="12.5"/>
<feColorMatrix type="matrix" values="0 0 0 0 0 0 0 0 0 0 0 0 0 0 0 0 0 0 0.25 0"/>
<feBlend mode="normal" in2="BackgroundImageFix" result="effect1_dropShadow"/>
<feBlend mode="normal" in="SourceGraphic" in2="effect1_dropShadow" result="shape"/>
</filter>
<radialGradient id="paint0_radial" cx="0" cy="0" r="1" gradientUnits="userSpaceOnUse" gradientTransform="translate(85.469 75.25) rotate(90) scale(50.25 60.469)">
<stop offset="0.1875" stop-color="#5B71E5"/>
<stop offset="0.473958" stop-color="#778AF1" stop-opacity="0.854167"/>
<stop offset="1" stop-color="white" stop-opacity="0"/>
</radialGradient>
<linearGradient id="paint1_linear" x1="140.012" y1="45.5" x2="25.0115" y2="126" gradientUnits="userSpaceOnUse">
<stop stop-color="#E248F2"/>
<stop offset="0.104167" stop-color="#E452F3" stop-opacity="0.947917"/>
<stop offset="0.859375" stop-color="white" stop-opacity="0"/>
<stop offset="0.9999" stop-color="#FEF6FE" stop-opacity="0.0493756"/>
</linearGradient>
</defs>
</svg>
