<svg width="255" height="255" viewBox="0 0 255 255" fill="none" xmlns="http://www.w3.org/2000/svg">
<circle cx="127.5" cy="127.5" r="127.5" fill="black"/>
<circle cx="127.5" cy="127.5" r="76.5" fill="#7B61B3"/>
<g clip-path="url(#clip0)">
<path d="M95.1154 133.243C77.851 135.431 83.0577 158.403 96.4856 155.395L95.1154 133.243Z" fill="#FCD5CD"/>
<path d="M95.1154 133.243C77.851 135.431 83.0577 158.403 96.4856 155.395L95.1154 133.243Z" fill="url(#paint0_linear)"/>
<path d="M159.789 133.243C174.039 133.243 174.861 155.395 158.144 154.028L159.789 133.243Z" fill="#FCD5CD"/>
<path d="M159.789 133.243C174.039 133.243 174.861 155.395 158.144 154.028L159.789 133.243Z" fill="url(#paint1_linear)"/>
<path d="M74.0144 118.749C87.0046 122.841 95.6498 125.724 96.7596 131.329L161.159 128.32C162.118 116.788 168.554 107.862 181.986 91.127C175.785 90.2106 172.296 89.7717 164.995 95.5027C162.588 91.0159 161.578 88.0222 161.159 80.7347C155.803 85.9559 155.427 89.2715 155.678 95.5027C137.596 89.8404 121.423 86.7513 113.75 91.127C106.077 95.5027 95.1603 89.5977 84.9759 83.4695C88.7508 91.9621 96.7596 100.152 96.7596 107.536C90.4844 113.67 82.1416 117.328 74.0144 118.749Z" fill="#FCD5CD"/>
<path d="M74.0144 118.749C87.0046 122.841 95.6498 125.724 96.7596 131.329L161.159 128.32C162.118 116.788 168.554 107.862 181.986 91.127C175.785 90.2106 172.296 89.7717 164.995 95.5027C162.588 91.0159 161.578 88.0222 161.159 80.7347C155.803 85.9559 155.427 89.2715 155.678 95.5027C137.596 89.8404 121.423 86.7513 113.75 91.127C106.077 95.5027 95.1603 89.5977 84.9759 83.4695C88.7508 91.9621 96.7596 100.152 96.7596 107.536C90.4844 113.67 82.1416 117.328 74.0144 118.749Z" fill="url(#paint2_linear)"/>
<path d="M96.7597 131.329L94.0712 131.859C94.3343 133.187 95.5322 134.124 96.8878 134.061L96.7597 131.329ZM74.0145 118.749L73.5419 116.055C72.2978 116.272 71.3637 117.31 71.2801 118.568C71.1965 119.825 71.9851 120.977 73.1896 121.357L74.0145 118.749ZM96.7597 107.536L98.6772 109.49C99.2035 108.975 99.5001 108.271 99.5001 107.536H96.7597ZM84.976 83.4696L86.391 81.1275C85.3667 80.5112 84.0602 80.629 83.1632 81.4187C82.2662 82.2083 81.986 83.4873 82.471 84.5785L84.976 83.4696ZM155.678 95.5027L154.857 98.1121C155.708 98.3785 156.636 98.2152 157.344 97.6742C158.052 97.1332 158.452 96.2822 158.416 95.3931L155.678 95.5027ZM161.159 80.7348L163.895 80.578C163.833 79.508 163.151 78.5724 162.15 78.1849C161.148 77.7974 160.012 78.0295 159.244 78.7784L161.159 80.7348ZM164.995 95.5027L162.579 96.7936C162.962 97.5064 163.641 98.0138 164.433 98.1795C165.227 98.3452 166.052 98.1521 166.689 97.6523L164.995 95.5027ZM181.986 91.127L184.124 92.8368C184.738 92.0724 184.895 91.039 184.536 90.1273C184.177 89.2158 183.358 88.5652 182.387 88.4217L181.986 91.127ZM161.159 128.32L161.287 131.052C162.662 130.988 163.776 129.916 163.89 128.547L161.159 128.32ZM99.4481 130.799C98.6271 126.652 95.1087 124.016 91.0552 122.019C86.904 119.974 81.2729 118.167 74.8394 116.141L73.1896 121.357C79.7462 123.422 84.9328 125.103 88.6292 126.924C92.4234 128.793 93.7825 130.4 94.0712 131.859L99.4481 130.799ZM74.4871 121.442C83.0529 119.946 91.9354 116.08 98.6772 109.49L94.8421 105.582C89.0337 111.26 81.2305 114.711 73.5419 116.055L74.4871 121.442ZM99.5001 107.536C99.5001 102.983 97.0698 98.482 94.6204 94.4902C92.011 90.2376 89.2706 86.3868 87.481 82.3607L82.471 84.5785C84.4563 89.0449 87.6077 93.5353 89.9464 97.3466C92.4452 101.419 94.0193 104.705 94.0193 107.536H99.5001ZM83.561 85.8116C88.6417 88.8687 94.1454 92.0232 99.417 93.8246C104.658 95.6153 110.255 96.2702 115.11 93.5015L112.39 88.7526C109.572 90.3596 105.875 90.2498 101.192 88.6499C96.5415 87.0606 91.4947 84.1986 86.391 81.1275L83.561 85.8116ZM115.11 93.5015C118.114 91.788 123.285 91.3412 130.461 92.263C137.49 93.1662 145.878 95.3001 154.857 98.1121L156.498 92.8933C147.396 90.0429 138.656 87.8012 131.16 86.8382C123.811 85.8939 117.059 86.0904 112.39 88.7526L115.11 93.5015ZM158.416 95.3931C158.291 92.2871 158.355 90.3355 158.924 88.581C159.471 86.8917 160.579 85.1231 163.074 82.6911L159.244 78.7784C156.383 81.5675 154.625 84.0674 153.708 86.899C152.813 89.6654 152.814 92.4872 152.94 95.6124L158.416 95.3931ZM158.423 80.8915C158.638 84.6285 159.011 87.4094 159.687 89.8876C160.369 92.3871 161.328 94.461 162.579 96.7936L167.411 94.2118C166.255 92.0576 165.505 90.3913 164.976 88.4504C164.44 86.4882 164.099 84.1285 163.895 80.578L158.423 80.8915ZM166.689 97.6523C170.159 94.929 172.456 93.8854 174.422 93.5076C176.45 93.1176 178.412 93.3634 181.584 93.8324L182.387 88.4217C179.359 87.9742 176.476 87.5424 173.385 88.1367C170.23 88.743 167.133 90.3455 163.301 93.3532L166.689 97.6523ZM179.847 89.4173C166.533 106.005 159.468 115.584 158.428 128.094L163.89 128.547C164.767 117.992 170.575 109.718 184.124 92.8368L179.847 89.4173ZM96.8878 134.061L161.287 131.052L161.03 125.589L96.6315 128.597L96.8878 134.061Z" fill="#FCD5CD"/>
<path d="M96.7597 131.329L94.0712 131.859C94.3343 133.187 95.5322 134.124 96.8878 134.061L96.7597 131.329ZM74.0145 118.749L73.5419 116.055C72.2978 116.272 71.3637 117.31 71.2801 118.568C71.1965 119.825 71.9851 120.977 73.1896 121.357L74.0145 118.749ZM96.7597 107.536L98.6772 109.49C99.2035 108.975 99.5001 108.271 99.5001 107.536H96.7597ZM84.976 83.4696L86.391 81.1275C85.3667 80.5112 84.0602 80.629 83.1632 81.4187C82.2662 82.2083 81.986 83.4873 82.471 84.5785L84.976 83.4696ZM155.678 95.5027L154.857 98.1121C155.708 98.3785 156.636 98.2152 157.344 97.6742C158.052 97.1332 158.452 96.2822 158.416 95.3931L155.678 95.5027ZM161.159 80.7348L163.895 80.578C163.833 79.508 163.151 78.5724 162.15 78.1849C161.148 77.7974 160.012 78.0295 159.244 78.7784L161.159 80.7348ZM164.995 95.5027L162.579 96.7936C162.962 97.5064 163.641 98.0138 164.433 98.1795C165.227 98.3452 166.052 98.1521 166.689 97.6523L164.995 95.5027ZM181.986 91.127L184.124 92.8368C184.738 92.0724 184.895 91.039 184.536 90.1273C184.177 89.2158 183.358 88.5652 182.387 88.4217L181.986 91.127ZM161.159 128.32L161.287 131.052C162.662 130.988 163.776 129.916 163.89 128.547L161.159 128.32ZM99.4481 130.799C98.6271 126.652 95.1087 124.016 91.0552 122.019C86.904 119.974 81.2729 118.167 74.8394 116.141L73.1896 121.357C79.7462 123.422 84.9328 125.103 88.6292 126.924C92.4234 128.793 93.7825 130.4 94.0712 131.859L99.4481 130.799ZM74.4871 121.442C83.0529 119.946 91.9354 116.08 98.6772 109.49L94.8421 105.582C89.0337 111.26 81.2305 114.711 73.5419 116.055L74.4871 121.442ZM99.5001 107.536C99.5001 102.983 97.0698 98.482 94.6204 94.4902C92.011 90.2376 89.2706 86.3868 87.481 82.3607L82.471 84.5785C84.4563 89.0449 87.6077 93.5353 89.9464 97.3466C92.4452 101.419 94.0193 104.705 94.0193 107.536H99.5001ZM83.561 85.8116C88.6417 88.8687 94.1454 92.0232 99.417 93.8246C104.658 95.6153 110.255 96.2702 115.11 93.5015L112.39 88.7526C109.572 90.3596 105.875 90.2498 101.192 88.6499C96.5415 87.0606 91.4947 84.1986 86.391 81.1275L83.561 85.8116ZM115.11 93.5015C118.114 91.788 123.285 91.3412 130.461 92.263C137.49 93.1662 145.878 95.3001 154.857 98.1121L156.498 92.8933C147.396 90.0429 138.656 87.8012 131.16 86.8382C123.811 85.8939 117.059 86.0904 112.39 88.7526L115.11 93.5015ZM158.416 95.3931C158.291 92.2871 158.355 90.3355 158.924 88.581C159.471 86.8917 160.579 85.1231 163.074 82.6911L159.244 78.7784C156.383 81.5675 154.625 84.0674 153.708 86.899C152.813 89.6654 152.814 92.4872 152.94 95.6124L158.416 95.3931ZM158.423 80.8915C158.638 84.6285 159.011 87.4094 159.687 89.8876C160.369 92.3871 161.328 94.461 162.579 96.7936L167.411 94.2118C166.255 92.0576 165.505 90.3913 164.976 88.4504C164.44 86.4882 164.099 84.1285 163.895 80.578L158.423 80.8915ZM166.689 97.6523C170.159 94.929 172.456 93.8854 174.422 93.5076C176.45 93.1176 178.412 93.3634 181.584 93.8324L182.387 88.4217C179.359 87.9742 176.476 87.5424 173.385 88.1367C170.23 88.743 167.133 90.3455 163.301 93.3532L166.689 97.6523ZM179.847 89.4173C166.533 106.005 159.468 115.584 158.428 128.094L163.89 128.547C164.767 117.992 170.575 109.718 184.124 92.8368L179.847 89.4173ZM96.8878 134.061L161.287 131.052L161.03 125.589L96.6315 128.597L96.8878 134.061Z" fill="url(#paint3_linear)"/>
<path d="M127.452 174.265C145.614 174.265 160.336 159.572 160.336 141.447C160.336 123.323 145.614 108.63 127.452 108.63C109.29 108.63 94.5673 123.323 94.5673 141.447C94.5673 159.572 109.29 174.265 127.452 174.265Z" fill="#FCD5CD"/>
<path d="M127.452 174.265C145.614 174.265 160.336 159.572 160.336 141.447C160.336 123.323 145.614 108.63 127.452 108.63C109.29 108.63 94.5673 123.323 94.5673 141.447C94.5673 159.572 109.29 174.265 127.452 174.265Z" fill="url(#paint4_linear)"/>
<path d="M127.452 174.265C145.614 174.265 160.336 159.572 160.336 141.447C160.336 123.323 145.614 108.63 127.452 108.63C109.29 108.63 94.5673 123.323 94.5673 141.447C94.5673 159.572 109.29 174.265 127.452 174.265Z" stroke="#FCD5CD" stroke-width="6" stroke-linejoin="round"/>
<path d="M127.452 174.265C145.614 174.265 160.336 159.572 160.336 141.447C160.336 123.323 145.614 108.63 127.452 108.63C109.29 108.63 94.5673 123.323 94.5673 141.447C94.5673 159.572 109.29 174.265 127.452 174.265Z" stroke="url(#paint5_linear)" stroke-width="6" stroke-linejoin="round"/>
<path d="M107.831 148.459C110.252 148.459 112.215 146.463 112.215 144C112.215 141.537 110.252 139.541 107.831 139.541C105.409 139.541 103.446 141.537 103.446 144C103.446 146.463 105.409 148.459 107.831 148.459Z" fill="#1A202C"/>
<path d="M146.196 148.459C148.618 148.459 150.581 146.463 150.581 144C150.581 141.537 148.618 139.541 146.196 139.541C143.775 139.541 141.812 141.537 141.812 144C141.812 146.463 143.775 148.459 146.196 148.459Z" fill="#1A202C"/>
<path d="M108.543 154.269H146.927" stroke="#1A202C" stroke-width="3" stroke-linecap="round" stroke-linejoin="round"/>
</g>
<defs>
<linearGradient id="paint0_linear" x1="168.338" y1="91.8243" x2="95.2598" y2="161.048" gradientUnits="userSpaceOnUse">
<stop stop-color="#988CBE"/>
<stop offset="1" stop-color="white" stop-opacity="0"/>
</linearGradient>
<linearGradient id="paint1_linear" x1="179.3" y1="90.9324" x2="105.189" y2="169.506" gradientUnits="userSpaceOnUse">
<stop stop-color="#988CBE"/>
<stop offset="1" stop-color="white" stop-opacity="0"/>
</linearGradient>
<linearGradient id="paint2_linear" x1="164.392" y1="88.7026" x2="105.272" y2="164.886" gradientUnits="userSpaceOnUse">
<stop stop-color="#988CBE"/>
<stop offset="1" stop-color="white" stop-opacity="0"/>
</linearGradient>
<linearGradient id="paint3_linear" x1="160.885" y1="85.581" x2="99.9792" y2="163.517" gradientUnits="userSpaceOnUse">
<stop stop-color="#988CBE"/>
<stop offset="1" stop-color="white" stop-opacity="0"/>
</linearGradient>
<linearGradient id="paint4_linear" x1="167.9" y1="93.1621" x2="103.992" y2="165.226" gradientUnits="userSpaceOnUse">
<stop stop-color="#988CBE"/>
<stop offset="1" stop-color="white" stop-opacity="0"/>
</linearGradient>
<linearGradient id="paint5_linear" x1="168.338" y1="91.8242" x2="104.857" y2="164.79" gradientUnits="userSpaceOnUse">
<stop stop-color="#988CBE"/>
<stop offset="1" stop-color="white" stop-opacity="0"/>
</linearGradient>
<clipPath id="clip0">
<rect width="114" height="99" fill="white" transform="translate(71 78)"/>
</clipPath>
</defs>
</svg>
