<svg width="255" height="255" viewBox="0 0 255 255" fill="none" xmlns="http://www.w3.org/2000/svg">
<circle cx="127.5" cy="127.5" r="127.5" fill="black"/>
<circle cx="127.5" cy="127.5" r="76.5" fill="#F3ECFF"/>
<path d="M101.954 140.111C105.242 140.111 107.908 137.4 107.908 134.055C107.908 130.711 105.242 128 101.954 128C98.6656 128 96 130.711 96 134.055C96 137.4 98.6656 140.111 101.954 140.111Z" fill="#1A202C"/>
<path d="M154.049 140.111C157.337 140.111 160.003 137.4 160.003 134.055C160.003 130.711 157.337 128 154.049 128C150.761 128 148.095 130.711 148.095 134.055C148.095 137.4 150.761 140.111 154.049 140.111Z" fill="#1A202C"/>
<path d="M102.921 148H155.041" stroke="#1A202C" stroke-width="2" stroke-linecap="round" stroke-linejoin="round"/>
</svg>
