<svg width="500" height="500" viewBox="0 0 500 500" fill="none" xmlns="http://www.w3.org/2000/svg">
<rect width="500" height="500" fill="#F3ECFF"/>
<g clip-path="url(#clip0)">
<path d="M148.25 219.403C95.0942 226.033 111.125 295.646 152.469 286.53L148.25 219.403Z" fill="#F4ECFF"/>
<path d="M347.375 219.403C391.25 219.403 393.781 286.53 342.312 282.387L347.375 219.403Z" fill="#F4ECFF"/>
<path d="M83.2812 175.481C123.277 187.881 149.895 196.617 153.312 213.602L351.594 204.486C354.547 169.539 374.363 142.49 415.719 91.779C396.628 89.0021 385.885 87.6722 363.406 105.039C355.995 91.4424 352.885 82.3706 351.594 60.2873C335.104 76.1091 333.948 86.1564 334.719 105.039C279.045 87.8802 229.25 78.5193 205.625 91.779C182 105.039 148.388 87.1448 117.031 68.5746C128.654 94.3096 153.312 119.127 153.312 141.503C133.992 160.09 108.304 171.177 83.2812 175.481Z" fill="#F4ECFF"/>
<path d="M153.313 213.602L145.035 215.209C145.845 219.234 149.533 222.072 153.707 221.881L153.313 213.602ZM83.2814 175.481L81.8262 167.318C77.9957 167.976 75.1197 171.121 74.8624 174.933C74.6051 178.744 77.0332 182.234 80.7416 183.384L83.2814 175.481ZM153.313 141.503L159.217 147.423C160.837 145.865 161.75 143.731 161.75 141.503H153.313ZM117.031 68.5747L121.388 61.4777C118.234 59.6099 114.212 59.967 111.45 62.3599C108.688 64.7528 107.825 68.6286 109.319 71.935L117.031 68.5747ZM334.719 105.039L332.193 112.946C334.812 113.753 337.669 113.258 339.849 111.619C342.027 109.98 343.259 107.401 343.15 104.706L334.719 105.039ZM351.594 60.2874L360.018 59.8125C359.827 56.5698 357.728 53.7348 354.645 52.5606C351.56 51.3864 348.064 52.0895 345.698 54.3592L351.594 60.2874ZM363.406 105.039L355.968 108.951C357.146 111.111 359.237 112.648 361.677 113.15C364.119 113.652 366.662 113.067 368.622 111.553L363.406 105.039ZM415.719 91.7791L422.303 96.9602C424.193 94.6439 424.676 91.5123 423.573 88.7498C422.467 85.9875 419.944 84.0161 416.954 83.5812L415.719 91.7791ZM351.594 204.486L351.989 212.765C356.223 212.57 359.652 209.32 360.003 205.172L351.594 204.486ZM161.59 211.996C159.062 199.431 148.229 191.442 135.749 185.391C122.968 179.195 105.63 173.719 85.8212 167.578L80.7416 183.384C100.929 189.643 116.898 194.736 128.279 200.254C139.961 205.917 144.146 210.788 145.035 215.209L161.59 211.996ZM84.7366 183.644C111.11 179.108 138.459 167.393 159.217 147.423L147.409 135.582C129.525 152.787 105.499 163.247 81.8262 167.318L84.7366 183.644ZM161.75 141.503C161.75 127.705 154.268 114.067 146.726 101.971C138.692 89.0839 130.254 77.4149 124.744 65.2144L109.319 71.935C115.431 85.4695 125.134 99.0769 132.335 110.626C140.028 122.967 144.875 132.925 144.875 141.503H161.75ZM112.675 75.6718C128.318 84.9358 145.263 94.4949 161.494 99.9536C177.63 105.38 194.863 107.364 209.811 98.9745L201.439 84.5838C192.763 89.4536 181.377 89.1209 166.961 84.2727C152.641 79.4568 137.102 70.7838 121.388 61.4777L112.675 75.6718ZM209.811 98.9745C219.063 93.782 234.984 92.428 257.077 95.2215C278.719 97.9585 304.545 104.425 332.193 112.946L337.245 97.1316C309.219 88.4941 282.31 81.701 259.23 78.7827C236.602 75.9212 215.812 76.5166 201.439 84.5838L209.811 98.9745ZM343.15 104.706C342.765 95.2946 342.962 89.3806 344.712 84.064C346.396 78.9448 349.809 73.5855 357.49 66.2157L345.698 54.3592C336.889 62.811 331.477 70.3863 328.654 78.9668C325.897 87.3499 325.902 95.9007 326.288 105.371L343.15 104.706ZM343.17 60.7623C343.831 72.0867 344.982 80.5136 347.063 88.0232C349.164 95.5974 352.115 101.882 355.968 108.951L370.845 101.127C367.286 94.5991 364.976 89.5497 363.346 83.6682C361.697 77.7221 360.646 70.5715 360.018 59.8125L343.17 60.7623ZM368.622 111.553C379.304 103.3 386.377 100.138 392.43 98.9929C398.675 97.8111 404.715 98.5562 414.484 99.9771L416.954 83.5812C407.632 82.2252 398.754 80.9167 389.237 82.7175C379.525 84.5548 369.988 89.4108 358.19 98.525L368.622 111.553ZM409.134 86.5981C368.14 136.865 346.388 165.891 343.185 203.801L360.003 205.172C362.704 173.187 380.585 148.116 422.303 96.9602L409.134 86.5981ZM153.707 221.881L351.989 212.765L351.199 196.208L152.918 205.324L153.707 221.881Z" fill="#F4ECFF"/>
<path d="M247.812 343.713C303.731 343.713 349.062 299.189 349.062 244.265C349.062 189.342 303.731 144.818 247.812 144.818C191.894 144.818 146.562 189.342 146.562 244.265C146.562 299.189 191.894 343.713 247.812 343.713Z" fill="#F4ECFF" stroke="#F4ECFF" stroke-width="6" stroke-linejoin="round"/>
<path d="M187.399 265.514C194.855 265.514 200.899 259.463 200.899 252C200.899 244.537 194.855 238.487 187.399 238.487C179.944 238.487 173.899 244.537 173.899 252C173.899 259.463 179.944 265.514 187.399 265.514Z" fill="#282C34"/>
<path d="M305.524 265.514C312.98 265.514 319.024 259.463 319.024 252C319.024 244.537 312.98 238.487 305.524 238.487C298.069 238.487 292.024 244.537 292.024 252C292.024 259.463 298.069 265.514 305.524 265.514Z" fill="#282C34"/>
<path d="M189.594 283.119H307.775" stroke="#282C34" stroke-width="3" stroke-linecap="round" stroke-linejoin="round"/>
</g>
<defs>
<clipPath id="clip0">
<rect width="351" height="300" fill="white" transform="translate(74 52)"/>
</clipPath>
</defs>
</svg>
