<svg width="130" height="111" viewBox="0 0 130 111" fill="none" xmlns="http://www.w3.org/2000/svg">
<g id="ex-face" clip-path="url(#clip0)">
<g id="red">
<g id="Vector">
<path d="M27.5001 61.9392C7.81257 64.3923 13.7501 90.1492 29.0626 86.7762L27.5001 61.9392Z" fill="#FCD5CD"/>
<path d="M27.5001 61.9392C7.81257 64.3923 13.7501 90.1492 29.0626 86.7762L27.5001 61.9392Z" fill="url(#paint0_linear)"/>
</g>
<g id="Vector_2">
<path d="M101.25 61.9392C117.5 61.9392 118.437 86.7762 99.375 85.2431L101.25 61.9392Z" fill="#FCD5CD"/>
<path d="M101.25 61.9392C117.5 61.9392 118.437 86.7762 99.375 85.2431L101.25 61.9392Z" fill="url(#paint1_linear)"/>
</g>
<g id="Vector_3">
<path d="M3.4375 45.6878C18.2509 50.2759 28.1094 53.5084 29.375 59.7928L102.812 56.4199C103.906 43.4893 111.246 33.4815 126.562 14.7182C119.492 13.6908 115.513 13.1987 107.187 19.6243C104.442 14.5937 103.291 11.2371 102.812 3.0663C96.705 8.92035 96.2769 12.6379 96.5625 19.6243C75.9425 13.2757 57.5 9.81216 48.75 14.7182C40 19.6243 27.5512 13.0036 15.9375 6.1326C20.2421 15.6546 29.375 24.837 29.375 33.116C22.2191 39.9932 12.7053 44.0956 3.4375 45.6878Z" fill="#FCD5CD"/>
<path d="M3.4375 45.6878C18.2509 50.2759 28.1094 53.5084 29.375 59.7928L102.812 56.4199C103.906 43.4893 111.246 33.4815 126.562 14.7182C119.492 13.6908 115.513 13.1987 107.187 19.6243C104.442 14.5937 103.291 11.2371 102.812 3.0663C96.705 8.92035 96.2769 12.6379 96.5625 19.6243C75.9425 13.2757 57.5 9.81216 48.75 14.7182C40 19.6243 27.5512 13.0036 15.9375 6.1326C20.2421 15.6546 29.375 24.837 29.375 33.116C22.2191 39.9932 12.7053 44.0956 3.4375 45.6878Z" fill="url(#paint2_linear)"/>
</g>
<g id="Vector_4">
<path d="M29.3751 59.7928L26.3093 60.3873C26.6093 61.8767 27.9753 62.9266 29.5212 62.8561L29.3751 59.7928ZM3.43756 45.6879L2.89861 42.6675C1.4799 42.9113 0.414703 44.0749 0.319406 45.485C0.22411 46.8951 1.12339 48.1865 2.49688 48.6119L3.43756 45.6879ZM29.3751 33.116L31.5617 35.3066C32.1619 34.7298 32.5001 33.9403 32.5001 33.116H29.3751ZM15.9376 6.1326L17.5512 3.5067C16.3831 2.81563 14.8932 2.94776 13.8703 3.83312C12.8474 4.71848 12.5279 6.15253 13.081 7.37592L15.9376 6.1326ZM96.5626 19.6243L95.6269 22.55C96.5969 22.8487 97.6551 22.6655 98.4626 22.059C99.2694 21.4524 99.7257 20.4983 99.6851 19.5014L96.5626 19.6243ZM102.813 3.0663L105.933 2.89058C105.862 1.6908 105.084 0.641833 103.943 0.207382C102.8 -0.22707 101.505 0.0330843 100.629 0.872848L102.813 3.0663ZM107.188 19.6243L104.433 21.0717C104.869 21.8709 105.643 22.4398 106.547 22.6255C107.451 22.8113 108.393 22.5949 109.119 22.0344L107.188 19.6243ZM126.563 14.7182L129.001 16.6352C129.701 15.7782 129.88 14.6195 129.471 13.5974C129.062 12.5753 128.128 11.8459 127.02 11.685L126.563 14.7182ZM102.813 56.4199L102.959 59.4828C104.527 59.4108 105.797 58.2085 105.927 56.6735L102.813 56.4199ZM32.4408 59.1984C31.5046 54.5496 27.4923 51.5935 22.8699 49.3547C18.1362 47.0619 11.7147 45.0361 4.37823 42.7638L2.49688 48.6119C9.97375 50.9277 15.8882 52.8122 20.1035 54.8538C24.4302 56.9494 25.98 58.7517 26.3093 60.3873L32.4408 59.1984ZM3.97651 48.7082C13.7445 47.0301 23.8737 42.6953 31.5617 35.3066L27.1884 30.9255C20.5647 37.2912 11.6663 41.1612 2.89861 42.6675L3.97651 48.7082ZM32.5001 33.116C32.5001 28.0108 29.7287 22.9647 26.9356 18.4891C23.9599 13.721 20.8349 9.40348 18.7941 4.88928L13.081 7.37592C15.3449 12.3837 18.9386 17.4184 21.6055 21.6917C24.455 26.2576 26.2501 29.9423 26.2501 33.116H32.5001ZM14.3239 8.75852C20.1177 12.1862 26.3938 15.7231 32.4054 17.7428C38.3814 19.7505 44.764 20.4848 50.3005 17.3805L47.1996 12.056C43.9861 13.8578 39.7692 13.7347 34.43 11.9408C29.1262 10.159 23.3711 6.94995 17.5512 3.5067L14.3239 8.75852ZM50.3005 17.3805C53.727 15.4593 59.6236 14.9583 67.8063 15.9919C75.8219 17.0046 85.3869 19.3972 95.6269 22.55L97.4982 16.6986C87.1182 13.5028 77.1519 10.9893 68.6038 9.90954C60.2228 8.85081 52.5231 9.07109 47.1996 12.056L50.3005 17.3805ZM99.6851 19.5014C99.5426 16.019 99.6157 13.8308 100.264 11.8636C100.888 9.96952 102.151 7.98661 104.996 5.25975L100.629 0.872848C97.3663 4.00001 95.3619 6.80289 94.3163 9.97768C93.2951 13.0794 93.2969 16.2432 93.4401 19.7473L99.6851 19.5014ZM99.6926 3.24202C99.9376 7.43203 100.364 10.55 101.134 13.3285C101.913 16.131 103.006 18.4563 104.433 21.0717L109.943 18.177C108.624 15.7616 107.769 13.8933 107.165 11.7172C106.554 9.51712 106.165 6.87139 105.933 2.89058L99.6926 3.24202ZM109.119 22.0344C113.076 18.9811 115.695 17.811 117.937 17.3873C120.25 16.9501 122.487 17.2257 126.105 17.7515L127.02 11.685C123.568 11.1833 120.279 10.6991 116.754 11.3654C113.158 12.0452 109.625 13.8419 105.256 17.2142L109.119 22.0344ZM124.124 12.8012C108.941 31.4 100.884 42.1396 99.6982 56.1663L105.927 56.6735C106.928 44.839 113.55 35.5629 129.001 16.6352L124.124 12.8012ZM29.5212 62.8561L102.959 59.4828L102.666 53.357L29.2289 56.7299L29.5212 62.8561Z" fill="#FCD5CD"/>
<path d="M29.3751 59.7928L26.3093 60.3873C26.6093 61.8767 27.9753 62.9266 29.5212 62.8561L29.3751 59.7928ZM3.43756 45.6879L2.89861 42.6675C1.4799 42.9113 0.414703 44.0749 0.319406 45.485C0.22411 46.8951 1.12339 48.1865 2.49688 48.6119L3.43756 45.6879ZM29.3751 33.116L31.5617 35.3066C32.1619 34.7298 32.5001 33.9403 32.5001 33.116H29.3751ZM15.9376 6.1326L17.5512 3.5067C16.3831 2.81563 14.8932 2.94776 13.8703 3.83312C12.8474 4.71848 12.5279 6.15253 13.081 7.37592L15.9376 6.1326ZM96.5626 19.6243L95.6269 22.55C96.5969 22.8487 97.6551 22.6655 98.4626 22.059C99.2694 21.4524 99.7257 20.4983 99.6851 19.5014L96.5626 19.6243ZM102.813 3.0663L105.933 2.89058C105.862 1.6908 105.084 0.641833 103.943 0.207382C102.8 -0.22707 101.505 0.0330843 100.629 0.872848L102.813 3.0663ZM107.188 19.6243L104.433 21.0717C104.869 21.8709 105.643 22.4398 106.547 22.6255C107.451 22.8113 108.393 22.5949 109.119 22.0344L107.188 19.6243ZM126.563 14.7182L129.001 16.6352C129.701 15.7782 129.88 14.6195 129.471 13.5974C129.062 12.5753 128.128 11.8459 127.02 11.685L126.563 14.7182ZM102.813 56.4199L102.959 59.4828C104.527 59.4108 105.797 58.2085 105.927 56.6735L102.813 56.4199ZM32.4408 59.1984C31.5046 54.5496 27.4923 51.5935 22.8699 49.3547C18.1362 47.0619 11.7147 45.0361 4.37823 42.7638L2.49688 48.6119C9.97375 50.9277 15.8882 52.8122 20.1035 54.8538C24.4302 56.9494 25.98 58.7517 26.3093 60.3873L32.4408 59.1984ZM3.97651 48.7082C13.7445 47.0301 23.8737 42.6953 31.5617 35.3066L27.1884 30.9255C20.5647 37.2912 11.6663 41.1612 2.89861 42.6675L3.97651 48.7082ZM32.5001 33.116C32.5001 28.0108 29.7287 22.9647 26.9356 18.4891C23.9599 13.721 20.8349 9.40348 18.7941 4.88928L13.081 7.37592C15.3449 12.3837 18.9386 17.4184 21.6055 21.6917C24.455 26.2576 26.2501 29.9423 26.2501 33.116H32.5001ZM14.3239 8.75852C20.1177 12.1862 26.3938 15.7231 32.4054 17.7428C38.3814 19.7505 44.764 20.4848 50.3005 17.3805L47.1996 12.056C43.9861 13.8578 39.7692 13.7347 34.43 11.9408C29.1262 10.159 23.3711 6.94995 17.5512 3.5067L14.3239 8.75852ZM50.3005 17.3805C53.727 15.4593 59.6236 14.9583 67.8063 15.9919C75.8219 17.0046 85.3869 19.3972 95.6269 22.55L97.4982 16.6986C87.1182 13.5028 77.1519 10.9893 68.6038 9.90954C60.2228 8.85081 52.5231 9.07109 47.1996 12.056L50.3005 17.3805ZM99.6851 19.5014C99.5426 16.019 99.6157 13.8308 100.264 11.8636C100.888 9.96952 102.151 7.98661 104.996 5.25975L100.629 0.872848C97.3663 4.00001 95.3619 6.80289 94.3163 9.97768C93.2951 13.0794 93.2969 16.2432 93.4401 19.7473L99.6851 19.5014ZM99.6926 3.24202C99.9376 7.43203 100.364 10.55 101.134 13.3285C101.913 16.131 103.006 18.4563 104.433 21.0717L109.943 18.177C108.624 15.7616 107.769 13.8933 107.165 11.7172C106.554 9.51712 106.165 6.87139 105.933 2.89058L99.6926 3.24202ZM109.119 22.0344C113.076 18.9811 115.695 17.811 117.937 17.3873C120.25 16.9501 122.487 17.2257 126.105 17.7515L127.02 11.685C123.568 11.1833 120.279 10.6991 116.754 11.3654C113.158 12.0452 109.625 13.8419 105.256 17.2142L109.119 22.0344ZM124.124 12.8012C108.941 31.4 100.884 42.1396 99.6982 56.1663L105.927 56.6735C106.928 44.839 113.55 35.5629 129.001 16.6352L124.124 12.8012ZM29.5212 62.8561L102.959 59.4828L102.666 53.357L29.2289 56.7299L29.5212 62.8561Z" fill="url(#paint3_linear)"/>
</g>
<g id="Vector_5">
<path d="M64.375 107.934C85.0857 107.934 101.875 91.4598 101.875 71.1381C101.875 50.8165 85.0857 34.3425 64.375 34.3425C43.6643 34.3425 26.875 50.8165 26.875 71.1381C26.875 91.4598 43.6643 107.934 64.375 107.934Z" fill="#FCD5CD"/>
<path d="M64.375 107.934C85.0857 107.934 101.875 91.4598 101.875 71.1381C101.875 50.8165 85.0857 34.3425 64.375 34.3425C43.6643 34.3425 26.875 50.8165 26.875 71.1381C26.875 91.4598 43.6643 107.934 64.375 107.934Z" fill="url(#paint4_linear)"/>
<path d="M64.375 107.934C85.0857 107.934 101.875 91.4598 101.875 71.1381C101.875 50.8165 85.0857 34.3425 64.375 34.3425C43.6643 34.3425 26.875 50.8165 26.875 71.1381C26.875 91.4598 43.6643 107.934 64.375 107.934Z" stroke="#FCD5CD" stroke-width="6" stroke-linejoin="round"/>
<path d="M64.375 107.934C85.0857 107.934 101.875 91.4598 101.875 71.1381C101.875 50.8165 85.0857 34.3425 64.375 34.3425C43.6643 34.3425 26.875 50.8165 26.875 71.1381C26.875 91.4598 43.6643 107.934 64.375 107.934Z" stroke="url(#paint5_linear)" stroke-width="6" stroke-linejoin="round"/>
</g>
</g>
<g id="eyes">
<path id="Vector_6" d="M42 79C44.7614 79 47 76.7614 47 74C47 71.2386 44.7614 69 42 69C39.2386 69 37 71.2386 37 74C37 76.7614 39.2386 79 42 79Z" fill="#282C34"/>
<path id="Vector_7" d="M85.75 79C88.5114 79 90.75 76.7614 90.75 74C90.75 71.2386 88.5114 69 85.75 69C82.9886 69 80.75 71.2386 80.75 74C80.75 76.7614 82.9886 79 85.75 79Z" fill="#282C34"/>
</g>
<path id="Vector_8" d="M42.8125 85.5142H86.5832" stroke="#282C34" stroke-width="3" stroke-linecap="round" stroke-linejoin="round"/>
</g>
<defs>
<linearGradient id="paint0_linear" x1="111" y1="15.5" x2="29" y2="94.5" gradientUnits="userSpaceOnUse">
<stop stop-color="#988CBE"/>
<stop offset="1" stop-color="white" stop-opacity="0"/>
</linearGradient>
<linearGradient id="paint1_linear" x1="123.5" y1="14.5" x2="40.5" y2="104" gradientUnits="userSpaceOnUse">
<stop stop-color="#988CBE"/>
<stop offset="1" stop-color="white" stop-opacity="0"/>
</linearGradient>
<linearGradient id="paint2_linear" x1="106.5" y1="12" x2="40.5" y2="98.5" gradientUnits="userSpaceOnUse">
<stop stop-color="#988CBE"/>
<stop offset="1" stop-color="white" stop-opacity="0"/>
</linearGradient>
<linearGradient id="paint3_linear" x1="100.5" y1="7" x2="34.5" y2="97" gradientUnits="userSpaceOnUse">
<stop stop-color="#988CBE"/>
<stop offset="1" stop-color="white" stop-opacity="0"/>
</linearGradient>
<linearGradient id="paint4_linear" x1="110.5" y1="17" x2="39" y2="99" gradientUnits="userSpaceOnUse">
<stop stop-color="#988CBE"/>
<stop offset="1" stop-color="white" stop-opacity="0"/>
</linearGradient>
<linearGradient id="paint5_linear" x1="111" y1="15.5" x2="40" y2="98.5" gradientUnits="userSpaceOnUse">
<stop stop-color="#988CBE"/>
<stop offset="1" stop-color="white" stop-opacity="0"/>
</linearGradient>
<clipPath id="clip0">
<rect width="130" height="111" fill="white"/>
</clipPath>
</defs>
</svg>
